<?xml version="1.0" encoding="UTF-8"?>
<!DOCTYPE svg PUBLIC "-//W3C//DTD SVG 1.1//EN" "http://www.w3.org/Graphics/SVG/1.1/DTD/svg11.dtd">
<!-- Creator: CorelDRAW X6 -->
<svg xmlns="http://www.w3.org/2000/svg" xml:space="preserve" width="5.82677in" height="8.26772in" version="1.1" style="shape-rendering:geometricPrecision; text-rendering:geometricPrecision; image-rendering:optimizeQuality; fill-rule:evenodd; clip-rule:evenodd"
viewBox="0 0 5827 8268"
 xmlns:xlink="http://www.w3.org/1999/xlink">
 <defs>
  <style type="text/css">
   <![CDATA[
    .str7 {stroke:#FEFEFE;stroke-width:6.94488}
    .str0 {stroke:#08EA00;stroke-width:6.94488}
    .str3 {stroke:#642A02;stroke-width:6.94488}
    .str1 {stroke:#642A04;stroke-width:6.94488}
    .str4 {stroke:#67330B;stroke-width:6.94488}
    .str2 {stroke:#86703F;stroke-width:6.94488}
    .str5 {stroke:#642A02;stroke-width:13.8898}
    .str6 {stroke:#642A04;stroke-width:13.8898}
    .fil1 {fill:none}
    .fil4 {fill:#FEFEFE}
    .fil0 {fill:#08EA00}
    .fil3 {fill:#642A02}
    .fil2 {fill:#67330B}
    .fil5 {fill:#67330B;fill-rule:nonzero}
   ]]>
  </style>
 </defs>
 <g id="Layer_x0020_1">
  <metadata id="CorelCorpID_0Corel-Layer"/>
  <g id="_758211792">
   <path class="fil0 str0" d="M2949 2234c-35,-10 -92,-22 -124,-63 -32,-41 -39,-112 -40,-148 -1,-37 4,-39 28,-37 25,3 70,10 99,15 29,5 42,6 61,36 19,30 44,89 56,118 12,29 12,29 -2,27 -14,-3 -43,-8 -48,5 -5,13 12,44 15,56 2,11 -11,2 -46,-9z"/>
   <path class="fil0 str0" d="M3133 2227c3,-23 0,-60 19,-99 19,-39 60,-79 81,-99 21,-20 21,-20 37,-20 16,0 48,0 66,-1 18,-1 21,-2 23,27 1,29 0,88 -1,117 -1,29 -1,29 -24,52 -24,23 -71,69 -93,92 -21,24 -17,25 -20,19 -4,-6 -15,-19 -21,-27 -5,-8 -4,-10 5,-30 9,-20 26,-57 11,-58 -15,-1 -61,35 -79,48 -18,13 -7,3 -4,-21z"/>
   <path class="fil1 str1" d="M3024 2572c713,0 1292,618 1292,1381 0,762 -578,1381 -1292,1381 -713,0 -1292,-618 -1292,-1381 0,-82 7,-162 19,-240m1012 -1112c84,-18 171,-28 261,-28"/>
   <path class="fil1 str2" d="M2884 2594c628,0 1138,557 1138,1243 0,687 -509,1243 -1138,1243 -259,0 -507,-95 -707,-269 -43,-38 -84,-79 -123,-123 -191,-222 -308,-521 -308,-851 0,-42 2,-83 6,-124m1012 -1112c40,-5 80,-7 121,-7"/>
   <path class="fil1 str1" d="M4049 2580c59,660 64,549 64,549 0,0 -6,-4 -14,-7m-3 108l87 135 -14 -403 -101 -404 -13 -36 -5 58"/>
   <path class="fil0 str0" d="M4129 2576c4,-24 0,-61 19,-100 19,-39 61,-80 83,-101 21,-21 21,-21 37,-21 16,0 49,0 67,-1 18,-1 22,-2 23,27 1,29 0,89 -1,119 -1,30 -1,30 -25,53 -24,23 -72,70 -94,94 -22,24 -17,25 -20,19 -4,-6 -16,-19 -21,-27 -5,-8 -4,-11 5,-31 9,-20 27,-58 12,-59 -15,-1 -62,36 -81,49 -18,13 -8,3 -4,-21z"/>
   <path class="fil0 str0" d="M3962 2445c-19,-12 -51,-20 -78,-53 -26,-33 -47,-90 -57,-118 -10,-28 -10,-28 -5,-45 5,-17 16,-50 22,-68 6,-19 6,-23 31,-14 25,9 75,30 100,41 25,11 25,11 36,43 11,32 34,97 47,127 13,30 15,26 9,27 -6,2 -21,9 -30,12 -9,3 -10,1 -24,-16 -14,-16 -40,-47 -46,-32 -6,15 9,76 14,99 5,23 0,9 -19,-3z"/>
   <path class="fil0 str0" d="M3963 2726c15,-12 25,-29 28,-37 3,-8 -1,-7 -12,-12 -11,-5 -30,-17 -27,-24 3,-7 28,-8 40,-16 12,-9 12,-24 -3,-37 -15,-13 -46,-24 -82,-22 -36,1 -76,14 -96,20 -20,6 -20,5 -21,16 -1,11 -2,35 17,60 19,25 58,53 88,63 30,10 52,2 67,-10z"/>
   <path class="fil0 str0" d="M3074 2401c-5,-15 -4,-26 -5,-35 -2,-10 -7,-19 -25,-20 -18,-1 -50,5 -81,24 -31,19 -61,50 -76,69 -15,19 -17,25 -1,40 16,14 49,37 88,33 39,-3 84,-32 103,-46 19,-14 12,-14 11,-14 -1,1 5,2 3,-7 -2,-9 -13,-29 -18,-44z"/>
   <path class="fil1 str1" d="M3046 2260c62,88 125,176 158,222 33,46 37,49 37,60 0,11 -5,29 -10,47"/>
   <path class="fil1 str3" d="M3327 2611c-26,-52 -52,-104 -99,-162 -47,-58 -114,-123 -147,-153 -32,-30 -29,-26 -26,-22"/>
   <path class="fil0 str0" d="M2717 2540c-15,-5 -37,-16 -61,-22 -24,-7 -50,-9 -87,2 -37,11 -86,36 -120,68 -34,32 -55,71 -72,105 -17,33 -31,61 -39,76 -7,15 -7,18 12,27 19,9 57,25 111,31 54,6 124,2 177,-27 53,-29 88,-84 104,-118 16,-33 12,-45 12,-55 -1,-10 2,-18 -31,-7 -33,11 -102,41 -103,32 -1,-9 65,-58 94,-82 28,-24 19,-24 4,-29z"/>
   <path class="fil0 str0" d="M3156 3022c-21,-12 -53,-35 -73,-46 -20,-12 -27,-13 -53,-2 -27,11 -73,35 -97,48 -24,13 -25,16 1,39 26,24 78,68 122,80 44,12 79,-9 99,-20 20,-11 23,-12 10,-20 -14,-7 -44,-20 -42,-33 2,-12 38,-24 56,-29 18,-5 20,-2 15,-2 -5,0 -15,-3 -37,-15z"/>
   <path class="fil0 str0" d="M3310 3010c-9,1 -25,5 -44,-4 -20,-9 -44,-31 -55,-60 -11,-29 -8,-66 -7,-84 1,-18 1,-17 11,-18 10,0 30,-2 51,4 20,6 41,20 58,40 17,20 30,46 37,60 7,13 7,14 7,14 0,0 1,0 -9,0 -11,0 -32,-1 -39,7 -7,8 1,25 3,34 2,8 -2,7 -11,8z"/>
   <path class="fil1 str3" d="M3660 2927c12,39 23,78 -58,103 -82,25 -257,35 -346,39 -89,3 -91,-1 4,9 96,10 289,33 395,38 106,5 124,-10 132,-17 9,-8 8,-8 5,-13 -3,-4 -8,-12 -8,-11 0,1 7,9 13,18"/>
   <path class="fil2 str4" d="M4017 3069c0,0 0,0 0,-1 0,0 0,1 0,1zm-233 6c0,0 0,0 0,0zm0 0c0,0 0,0 0,0zm238 761c0,298 -96,572 -256,786 0,0 -1,1 -1,1 -1,1 -2,3 -3,4 -123,163 -275,282 -440,356 0,0 -1,0 -1,1 -225,102 -476,122 -711,59 -205,-55 -399,-174 -555,-356 -8,-9 -16,-19 -24,-29 -177,-219 -284,-506 -284,-822 0,-42 2,-83 6,-124 -13,78 -19,158 -19,240 0,762 578,1381 1292,1381 713,0 1292,-618 1292,-1381 0,-245 -60,-476 -165,-675l-135 -209c-175,-224 -415,-388 -690,-459 -32,-8 -64,-15 -96,-21 -67,-12 -136,-17 -206,-17 -89,0 -177,10 -261,28 40,-5 80,-7 121,-7 300,0 573,127 776,334 45,46 86,95 124,148 3,4 5,7 8,11 0,1 1,1 1,2 1,2 3,4 4,5 142,207 226,465 226,743z"/>
   <path class="fil3 str3" d="M4107 3126c3,2 5,3 5,3 0,0 -1,18 -5,-3zm-59 -546c32,356 48,487 56,533 1,5 2,9 2,13 -1,0 -2,-1 -3,-1l-2 67 0 9 49 76c11,20 21,41 30,61l-13 -376 -101 -404 -13 -36 -5 58z"/>
   <path class="fil2 str4" d="M3327 2611c-26,-52 -52,-104 -99,-162 -47,-58 -114,-123 -147,-153 -32,-30 -29,-26 -26,-22 59,84 117,166 149,210 33,46 37,49 37,60 0,11 -5,29 -10,47 32,6 64,12 96,21z"/>
   <path class="fil2 str4" d="M3602 3030c-82,25 -257,35 -346,39 -89,3 -91,-1 4,9 96,10 289,33 395,38 106,5 124,-10 132,-17 7,-6 8,-8 6,-11l-1 -2 -8 -11c-38,-53 -79,-102 -123,-147 12,39 22,77 -59,102z"/>
   <line class="fil1 str5" x1="4107" y1="3036" x2="4102" y2= "3203" />
   <line class="fil1 str1" x1="2915" y1="3685" x2="3770" y2= "4626" />
   <line class="fil1 str1" x1="2914" y1="3681" x2="3008" y2= "3788" />
   <polyline class="fil1 str6" points="2126,4676 2916,3793 3150,4052 "/>
   <polygon class="fil0 str0" points="2652,4436 3150,4444 2891,4123 "/>
   <polygon class="fil0 str0" points="2642,4490 2878,4490 2878,4800 2642,4800 "/>
   <polygon class="fil0 str0" points="2924,4490 3161,4490 3161,4800 2924,4800 "/>
   <path class="fil0 str0" d="M3307 3134c-4,-11 -4,-11 -17,-2 -13,8 -38,25 -51,33 -12,8 -12,6 -14,32 -2,27 -8,82 -10,110 -2,28 -1,28 18,25 19,-2 56,-7 76,-11 20,-4 25,-7 35,-29 10,-22 27,-61 35,-83 8,-22 7,-26 -4,-29 -11,-3 -32,-6 -41,-5 -9,1 -8,7 -11,-2 -3,-8 -12,-30 -16,-41z"/>
   <polyline class="fil1 str3" points="3774,4623 2914,3674 4034,4011 "/>
   <polyline class="fil1 str5" points="2916,3676 2919,3673 2027,4655 "/>
   <path class="fil2 str4" d="M4012 4005l-1095 -330 -1 1 854 942c128,-173 214,-383 243,-614z"/>
   <polygon class="fil4 str7" points="3296,3910 3728,3943 3144,3818 3443,4226 "/>
   <path class="fil5" d="M877 5770l-48 0 0 -134c0,-19 -2,-36 -5,-51 -3,-15 -8,-28 -14,-40 -6,-12 -13,-21 -21,-29 -8,-8 -17,-15 -26,-20 -9,-5 -19,-9 -29,-12 -10,-2 -20,-4 -31,-4 -12,0 -24,2 -34,5 -11,4 -20,8 -29,15 -9,6 -16,14 -22,22 -6,9 -12,18 -16,28 -4,10 -8,21 -10,33 -2,11 -3,23 -3,35 0,15 1,28 3,41 2,13 4,25 7,36 12,-6 25,-11 38,-14 13,-3 27,-5 40,-5 7,0 13,0 19,1 6,0 12,1 18,2 6,1 11,3 17,4 6,2 11,4 17,7 4,-15 5,-30 5,-43 0,-13 -1,-24 -3,-35 -2,-10 -5,-19 -8,-26 -4,-7 -8,-13 -13,-17 -5,-4 -10,-7 -15,-8 1,2 3,4 4,7 1,3 2,6 3,9 1,3 1,6 2,9 0,3 1,6 1,9 0,7 -1,15 -4,22 -2,7 -6,13 -10,18 -5,5 -10,9 -17,13 -7,3 -14,5 -22,5 -8,0 -15,-2 -22,-5 -6,-3 -12,-7 -16,-13 -4,-5 -8,-12 -10,-19 -2,-7 -4,-15 -4,-23 0,-11 2,-21 7,-31 4,-9 10,-18 18,-24 8,-7 17,-12 28,-16 11,-4 22,-6 34,-6 14,0 26,3 38,9 12,6 22,14 31,25 9,11 15,24 20,40 5,16 7,33 7,52 0,13 -1,27 -3,40 -2,13 -5,26 -9,38 5,5 9,10 13,16 4,6 7,12 10,19 3,7 5,14 7,22 2,8 2,16 2,24 0,9 -1,17 -3,24 -2,7 -5,13 -9,19 -4,5 -8,10 -13,14 -5,4 -10,7 -16,9 -6,2 -12,4 -18,5 -6,1 -13,2 -19,2 -11,0 -22,-1 -33,-4 -11,-3 -22,-6 -33,-11 -11,5 -22,9 -33,11 -11,3 -23,4 -36,4 -10,0 -19,-1 -28,-4 -9,-2 -17,-6 -25,-12 -7,-6 -13,-13 -17,-22 -4,-9 -6,-21 -6,-34 0,-15 2,-29 7,-42 5,-12 12,-24 20,-33 -6,-16 -11,-32 -14,-49 -3,-17 -5,-35 -5,-53 0,-17 2,-33 5,-49 3,-16 9,-30 15,-44 7,-14 15,-27 24,-38 10,-12 20,-22 33,-30 12,-8 26,-15 40,-19 15,-5 30,-7 46,-7 20,0 38,3 54,8 16,5 31,12 44,22 13,9 24,20 34,33 10,13 17,26 24,41 6,15 11,30 14,47 3,16 5,33 5,50l0 133zm-144 -39c-4,-2 -9,-4 -14,-5 -5,-1 -10,-2 -15,-3 -5,-1 -10,-1 -15,-2 -5,0 -10,0 -14,0 -12,0 -24,1 -34,4 -10,3 -20,7 -28,12 8,16 18,30 29,42 11,11 22,21 34,28 13,-9 24,-21 34,-34 10,-13 18,-27 24,-42zm34 38c-12,22 -28,42 -46,58 9,2 16,3 22,3 4,0 8,-1 11,-2 4,-1 7,-3 10,-6 3,-3 5,-6 7,-9 2,-4 3,-8 3,-13 0,-10 -2,-21 -7,-31zm-161 61c4,0 8,0 12,-1 4,0 8,-1 12,-2 -9,-8 -17,-16 -26,-25 -8,-9 -15,-19 -22,-30 -4,9 -6,18 -6,28 0,6 1,10 3,14 2,4 4,7 7,9 3,2 6,4 10,5 4,1 7,1 10,1zm78 -235c0,-3 0,-6 -1,-9 -1,-3 -2,-6 -3,-8 -1,-2 -3,-4 -5,-6 -2,-1 -4,-2 -6,-2 -2,0 -4,1 -6,2 -2,1 -4,3 -5,6 -1,2 -2,5 -3,8 -1,3 -1,6 -1,9 0,6 1,11 4,14 3,3 7,5 11,5 4,0 8,-2 11,-5 3,-3 4,-8 4,-14zm546 175l-200 0 0 -19c-3,3 -6,6 -10,9 -3,3 -7,5 -11,7 -4,2 -9,4 -15,5 -6,1 -12,2 -19,2 -7,0 -14,-1 -20,-4 -6,-3 -10,-6 -14,-11 -4,-5 -7,-11 -8,-18 -2,-7 -3,-15 -3,-24l0 -190 48 0 0 173c0,4 0,8 0,12 0,4 1,7 2,10 1,3 2,5 4,7 2,2 5,3 8,3 4,0 9,-2 13,-5 4,-4 8,-8 12,-13 4,-5 6,-11 9,-16 2,-6 3,-10 3,-14l0 -155 48 0 0 201 104 0 0 -201 48 0 0 243zm206 0l-47 0 0 -172c0,-4 -1,-8 -2,-12 -1,-4 -3,-7 -6,-10 -2,-3 -6,-5 -10,-7 -4,-2 -8,-3 -14,-3 -5,0 -9,1 -12,3 -3,2 -6,4 -8,7 -2,3 -4,6 -4,10 -1,4 -1,8 -1,11l0 173 -48 0 0 -178c0,-9 2,-18 6,-26 4,-8 9,-16 16,-22 7,-6 14,-11 22,-15 8,-4 17,-5 27,-5 14,0 27,2 37,6 11,4 19,11 25,19 14,-17 33,-26 56,-26 15,0 28,3 40,8 12,5 21,13 29,24 8,11 14,25 18,41 4,17 6,36 6,59 0,24 -2,45 -6,63 -4,18 -9,34 -15,48 -6,13 -14,25 -22,34 -9,9 -18,16 -28,22 -10,6 -20,9 -31,12 -10,2 -21,4 -31,4l-89 0c-7,0 -12,1 -17,4 -4,3 -7,6 -10,10 -2,4 -4,9 -4,14 -1,5 -1,10 -1,15l-48 0c0,-14 2,-26 5,-37 3,-11 8,-19 15,-26 7,-7 15,-12 26,-16 11,-4 24,-5 39,-5l85 0c12,0 22,-2 32,-7 10,-5 19,-12 26,-23 7,-11 13,-25 17,-43 4,-18 6,-39 6,-65 0,-7 0,-14 -1,-21 0,-7 -1,-14 -2,-21 -1,-7 -2,-13 -4,-19 -2,-6 -4,-11 -8,-16 -3,-4 -7,-8 -12,-11 -5,-3 -10,-4 -17,-4 -5,0 -10,1 -15,3 -4,2 -8,4 -11,7 -3,3 -6,7 -7,11 -2,4 -3,9 -3,15l0 169zm-49 -304c0,-4 1,-8 2,-11 1,-4 3,-7 6,-9 2,-3 5,-5 9,-6 3,-2 7,-2 10,-2 4,0 7,1 10,2 3,2 6,4 9,6 2,3 4,6 6,9 1,4 2,7 2,11 0,4 -1,8 -2,12 -1,4 -3,7 -6,9 -2,3 -5,5 -9,6 -3,2 -7,2 -11,2 -4,0 -7,-1 -11,-2 -3,-2 -6,-4 -9,-6 -2,-3 -4,-6 -6,-9 -1,-4 -2,-7 -2,-11zm564 311l-33 -23c5,-8 9,-16 13,-23 4,-8 7,-16 10,-24 3,-8 5,-17 6,-26 1,-9 2,-20 2,-31 0,-12 -2,-23 -5,-33 -4,-10 -9,-19 -15,-26 -6,-7 -13,-13 -22,-18 -8,-4 -17,-6 -26,-6 -2,0 -4,0 -6,0 -2,0 -4,0 -6,1 -2,0 -4,1 -6,2 -2,1 -4,2 -7,3 4,6 9,13 12,20 4,7 7,15 10,23 3,8 5,17 7,26 2,9 2,18 2,28 0,17 -2,31 -5,44 -3,13 -8,24 -13,33 -6,9 -13,16 -20,21 -8,5 -17,7 -26,7 -12,0 -22,-3 -30,-9 -8,-6 -15,-14 -20,-23 -5,-10 -9,-21 -11,-33 -2,-12 -3,-25 -3,-39 0,-21 2,-39 7,-55 5,-16 12,-30 22,-41 -6,-2 -14,-4 -22,-6 -9,-2 -18,-2 -28,-2 -8,0 -15,1 -23,3 -8,2 -15,5 -21,9 -7,4 -12,8 -17,14 -5,5 -9,11 -12,17 2,0 3,0 5,-1 2,0 4,0 5,0 10,0 18,2 25,7 7,5 13,11 17,18 5,8 8,17 10,27 2,10 3,21 3,31 0,11 -1,21 -4,31 -3,10 -6,19 -11,26 -5,8 -11,14 -19,18 -7,5 -16,7 -26,7 -8,0 -15,-2 -22,-5 -6,-3 -12,-8 -17,-13 -5,-6 -9,-12 -13,-19 -4,-7 -7,-15 -9,-23 -2,-8 -4,-16 -5,-24 -1,-8 -2,-15 -2,-22 0,-14 2,-27 5,-40 3,-13 8,-24 14,-35 6,-11 13,-20 21,-29 8,-9 17,-16 27,-22 10,-6 20,-11 32,-14 11,-3 23,-5 35,-5 7,0 14,0 22,1 7,0 14,1 22,3 7,1 14,3 21,6 7,2 13,6 20,9 4,-3 8,-5 13,-8 4,-2 9,-4 15,-6 5,-2 11,-3 18,-4 7,-1 14,-2 22,-2 11,0 21,2 31,5 10,3 19,7 27,13 8,6 16,12 22,20 7,8 12,16 17,26 5,9 8,19 11,30 3,11 4,22 4,33 0,14 -1,27 -4,39 -3,12 -6,23 -11,34 -4,10 -10,20 -16,29 -6,9 -12,18 -18,26zm-110 -101c0,-9 0,-17 -1,-23 -1,-7 -2,-12 -3,-18 -1,-5 -3,-10 -6,-15 -2,-5 -5,-10 -8,-15 -6,11 -11,22 -13,34 -3,11 -4,24 -4,37 0,8 0,15 1,22 1,7 2,13 3,18 2,5 3,9 5,12 2,3 5,5 8,5 3,0 5,-2 7,-5 2,-3 4,-7 6,-12 2,-5 3,-11 4,-18 1,-7 1,-14 1,-21zm-190 -20c0,1 0,3 -1,4 0,2 0,4 0,6 0,6 0,13 1,20 1,7 2,15 4,21 2,7 4,12 7,17 3,5 6,7 9,7 3,0 5,-1 7,-4 2,-2 3,-6 4,-9 1,-4 2,-8 2,-13 0,-5 0,-9 0,-14 0,-1 0,-3 0,-6 0,-2 0,-5 -1,-8 0,-3 -1,-6 -2,-9 -1,-3 -2,-6 -3,-8 -1,-3 -3,-5 -5,-6 -2,-2 -4,-2 -7,-2 -2,0 -4,0 -7,1 -2,0 -5,2 -8,4zm608 -129l0 42 -44 0 0 48 10 0c10,0 20,2 29,5 9,3 18,8 25,14 7,6 13,13 18,22 4,9 7,18 7,29 0,12 -2,23 -6,34 -4,10 -9,19 -16,27 -7,8 -15,14 -25,18 -10,5 -21,7 -33,8l0 -43c10,-2 17,-6 22,-14 5,-8 7,-17 7,-28 0,-10 -3,-18 -10,-23 -7,-5 -16,-7 -28,-7l0 11c0,7 0,14 -1,22 -1,8 -2,16 -4,23 -2,8 -5,15 -9,22 -4,7 -9,13 -15,19 -6,5 -14,10 -24,13 -9,3 -21,5 -34,5 -8,0 -16,-1 -23,-4 -8,-3 -15,-6 -21,-11 -7,-5 -13,-10 -18,-16 -5,-6 -10,-13 -14,-19 -4,-7 -7,-14 -9,-21 -2,-7 -3,-14 -3,-21 0,-7 1,-13 2,-20 1,-6 4,-12 7,-17 3,-5 7,-10 13,-13 5,-4 11,-6 19,-8l0 -96 179 0zm-92 90l0 -48 -39 0 0 48 39 0zm0 42l-56 0c-3,0 -5,0 -8,1 -3,1 -5,2 -7,4 -2,2 -3,4 -5,7 -1,3 -2,6 -2,11 0,5 1,11 4,17 2,6 6,11 9,16 4,5 8,9 13,12 5,3 10,5 14,5 7,0 13,-1 18,-4 5,-3 9,-7 11,-12 3,-5 5,-11 6,-17 1,-7 2,-14 2,-21l0 -17zm483 111l-200 0 0 -19c-3,3 -6,6 -10,9 -3,3 -7,5 -11,7 -4,2 -9,4 -15,5 -6,1 -12,2 -19,2 -7,0 -14,-1 -20,-4 -6,-3 -10,-6 -14,-11 -4,-5 -7,-11 -8,-18 -2,-7 -3,-15 -3,-24l0 -190 48 0 0 173c0,4 0,8 0,12 0,4 1,7 2,10 1,3 2,5 4,7 2,2 5,3 8,3 4,0 9,-2 13,-5 4,-4 8,-8 12,-13 4,-5 6,-11 9,-16 2,-6 3,-10 3,-14l0 -155 48 0 0 201 104 0 0 -201 48 0 0 243zm101 0l-48 0 0 -204c0,-17 -1,-31 -3,-43 -2,-12 -6,-22 -11,-29 -5,-7 -11,-13 -19,-16 -8,-3 -18,-5 -29,-5 -7,0 -14,1 -20,2 -6,1 -11,3 -15,6 -4,3 -8,6 -10,10 -2,4 -4,9 -4,14 0,2 1,5 2,7 1,3 3,5 6,7 3,2 7,4 11,6 5,2 10,2 17,2l17 0 0 42 -17 0c-16,0 -29,-2 -40,-5 -11,-3 -19,-8 -26,-14 -7,-6 -11,-13 -14,-21 -3,-8 -4,-16 -4,-24 0,-12 2,-22 7,-32 5,-9 12,-17 21,-24 9,-6 19,-11 31,-15 12,-3 25,-5 40,-5 14,0 27,1 38,4 11,3 20,7 28,13 8,5 15,12 20,19 5,7 10,16 13,25 3,9 6,19 7,29 1,10 2,21 2,32l0 218zm426 -201l-37 0 0 201 -48 0 0 -201 -16 0c-3,0 -6,0 -10,0 -4,0 -8,0 -11,1 -4,0 -7,1 -11,1 -3,1 -6,1 -8,2 4,6 9,12 12,20 4,7 7,14 10,22 3,8 5,16 6,25 1,9 2,18 2,27 0,17 -2,31 -5,44 -3,13 -8,24 -14,33 -6,9 -13,16 -20,21 -8,5 -17,7 -26,7 -12,0 -22,-3 -30,-9 -8,-6 -15,-14 -20,-23 -5,-10 -9,-21 -11,-33 -2,-12 -3,-25 -3,-39 0,-10 1,-20 2,-28 1,-9 3,-17 6,-24 3,-8 6,-15 10,-22 4,-7 8,-14 13,-22 -6,-3 -13,-5 -21,-6 -7,-1 -16,-2 -26,-2 -8,0 -15,1 -23,3 -8,2 -15,5 -21,9 -7,4 -12,8 -17,14 -5,5 -9,11 -12,17 2,0 3,0 5,-1 2,0 4,0 5,0 10,0 18,2 25,7 7,5 13,11 17,18 5,8 8,17 10,27 2,10 3,21 3,31 0,11 -1,21 -4,31 -3,10 -6,19 -11,26 -5,8 -11,14 -19,18 -7,5 -16,7 -26,7 -8,0 -15,-2 -22,-5 -6,-3 -12,-8 -17,-13 -5,-6 -9,-12 -13,-19 -4,-7 -6,-15 -9,-23 -2,-8 -4,-16 -5,-24 -1,-8 -2,-15 -2,-22 0,-14 2,-27 5,-40 3,-13 8,-24 13,-35 6,-11 13,-20 21,-29 8,-9 17,-16 27,-22 10,-6 20,-11 32,-14 11,-3 23,-5 35,-5 7,0 14,0 22,1 7,1 15,2 22,3 7,2 14,4 21,7 7,3 13,6 19,11 7,-4 15,-8 22,-10 8,-2 15,-4 23,-5 8,-1 16,-2 24,-2 8,0 16,0 24,0l80 0 0 42zm-157 106c0,-9 0,-17 -1,-23 -1,-7 -2,-12 -3,-18 -1,-5 -3,-10 -6,-15 -2,-5 -5,-10 -8,-15 -6,11 -11,22 -13,34 -3,11 -4,24 -4,37 0,8 0,15 1,22 1,7 2,13 3,18 1,5 3,9 5,12 2,3 5,5 8,5 3,0 5,-2 7,-5 2,-3 4,-7 6,-12 2,-5 3,-11 4,-18 1,-7 1,-14 1,-21zm-185 -20c0,1 0,3 -1,4 0,2 0,4 0,6 0,6 0,13 1,20 1,7 2,15 4,21 2,7 4,12 7,17 3,5 6,7 9,7 3,0 5,-1 7,-4 2,-2 3,-6 4,-9 1,-4 2,-8 2,-13 0,-5 0,-9 0,-14 0,-1 0,-3 0,-6 0,-2 0,-5 -1,-8 0,-3 -1,-6 -2,-9 -1,-3 -2,-6 -3,-8 -1,-3 -3,-5 -5,-6 -2,-2 -4,-2 -7,-2 -2,0 -4,0 -7,1 -2,0 -5,2 -8,4zm140 -190c0,-4 1,-8 2,-11 1,-4 3,-7 6,-9 2,-3 5,-5 9,-6 3,-2 7,-2 10,-2 4,0 7,1 10,2 3,2 6,4 9,6 2,3 4,6 6,9 1,4 2,7 2,11 0,4 -1,8 -2,12 -1,4 -3,7 -6,9 -2,3 -5,5 -9,6 -3,2 -7,2 -11,2 -4,0 -7,-1 -11,-2 -3,-2 -6,-4 -9,-6 -2,-3 -4,-6 -6,-9 -1,-4 -2,-7 -2,-11zm435 61l48 0 0 201 122 0 0 -201 48 0 0 243 -218 0 0 -243zm466 42l-46 0 0 201 -48 0 0 -201 -52 0 0 201 -48 0 0 -243 194 0 0 42z"/>
   <path class="fil5" d="M4261 5777l-33 -23c5,-8 9,-16 13,-23 4,-8 7,-16 10,-24 3,-8 5,-17 6,-26 1,-9 2,-20 2,-31 0,-12 -2,-23 -5,-33 -4,-10 -9,-19 -15,-26 -6,-7 -13,-13 -22,-18 -8,-4 -17,-6 -26,-6 -2,0 -4,0 -6,0 -2,0 -4,0 -6,1 -2,0 -4,1 -6,2 -2,1 -4,2 -7,3 4,6 9,13 12,20 4,7 7,15 10,23 3,8 5,17 6,26 2,9 2,18 2,28 0,17 -2,31 -5,44 -3,13 -8,24 -13,33 -6,9 -13,16 -20,21 -8,5 -17,7 -26,7 -12,0 -22,-3 -30,-9 -8,-6 -15,-14 -20,-23 -5,-10 -9,-21 -11,-33 -2,-12 -3,-25 -3,-39 0,-21 2,-39 7,-55 5,-16 12,-30 22,-41 -6,-2 -14,-4 -22,-6 -9,-2 -18,-2 -28,-2 -8,0 -15,1 -23,3 -8,2 -15,5 -21,9 -7,4 -12,8 -17,14 -5,5 -9,11 -12,17 2,0 3,0 5,-1 2,0 4,0 5,0 10,0 18,2 25,7 7,5 13,11 17,18 5,8 8,17 10,27 2,10 3,21 3,31 0,11 -1,21 -4,31 -3,10 -6,19 -11,26 -5,8 -11,14 -19,18 -7,5 -16,7 -26,7 -8,0 -15,-2 -22,-5 -6,-3 -12,-8 -17,-13 -5,-6 -9,-12 -13,-19 -4,-7 -6,-15 -9,-23 -2,-8 -4,-16 -5,-24 -1,-8 -2,-15 -2,-22 0,-14 2,-27 5,-40 3,-13 8,-24 14,-35 6,-11 13,-20 21,-29 8,-9 17,-16 27,-22 10,-6 20,-11 32,-14 11,-3 23,-5 35,-5 7,0 14,0 22,1 7,0 14,1 22,3 7,1 14,3 21,6 7,2 13,6 20,9 4,-3 8,-5 13,-8 4,-2 9,-4 15,-6 5,-2 11,-3 18,-4 7,-1 14,-2 22,-2 11,0 21,2 31,5 10,3 19,7 27,13 8,6 16,12 22,20 7,8 12,16 17,26 5,9 8,19 11,30 3,11 4,22 4,33 0,14 -1,27 -4,39 -3,12 -6,23 -11,34 -4,10 -10,20 -16,29 -6,9 -12,18 -18,26zm-110 -101c0,-9 0,-17 -1,-23 -1,-7 -2,-12 -3,-18 -1,-5 -3,-10 -6,-15 -2,-5 -5,-10 -8,-15 -6,11 -11,22 -13,34 -3,11 -4,24 -4,37 0,8 0,15 1,22 1,7 2,13 3,18 2,5 3,9 5,12 2,3 5,5 8,5 3,0 5,-2 7,-5 2,-3 4,-7 6,-12 2,-5 3,-11 4,-18 1,-7 1,-14 1,-21zm-190 -20c0,1 0,3 -1,4 0,2 0,4 0,6 0,6 0,13 1,20 1,7 2,15 4,21 2,7 4,12 7,17 3,5 6,7 9,7 3,0 5,-1 7,-4 2,-2 3,-6 4,-9 1,-4 2,-8 2,-13 0,-5 0,-9 0,-14 0,-1 0,-3 0,-6 0,-2 0,-5 -1,-8 0,-3 -1,-6 -2,-9 -1,-3 -2,-6 -3,-8 -1,-3 -3,-5 -5,-6 -2,-2 -4,-2 -7,-2 -2,0 -4,0 -7,1 -2,0 -5,2 -8,4zm608 -129l0 42 -44 0 0 48 4 0c10,0 21,2 30,5 10,3 18,8 26,14 7,6 13,14 18,24 4,10 7,21 7,35l0 29c0,16 -1,31 -4,44 -3,14 -8,26 -15,36 -7,10 -16,18 -27,24 -11,6 -26,9 -43,9l-111 0c-7,0 -12,1 -17,4 -4,3 -7,6 -10,10 -2,4 -4,9 -4,14 -1,5 -1,10 -1,15l-48 0c0,-14 2,-26 5,-37 3,-11 8,-19 15,-26 7,-7 15,-12 26,-16 11,-4 24,-5 39,-5l110 0c8,0 14,-2 19,-5 5,-4 9,-8 12,-15 3,-6 5,-14 6,-23 1,-9 2,-19 2,-29l0 -26c0,-6 -1,-11 -2,-15 -1,-5 -3,-9 -6,-12 -3,-3 -6,-6 -11,-8 -4,-2 -10,-3 -16,-3l-2 0 0 11c0,7 0,14 -1,22 -1,8 -2,16 -4,23 -2,8 -5,15 -9,22 -4,7 -9,13 -15,19 -6,5 -14,10 -24,13 -9,3 -21,5 -34,5 -8,0 -16,-1 -23,-4 -8,-3 -15,-6 -21,-11 -7,-5 -13,-10 -18,-16 -5,-6 -10,-13 -14,-19 -4,-7 -7,-14 -9,-21 -2,-7 -3,-14 -3,-21 0,-7 1,-13 2,-20 1,-6 4,-12 7,-17 3,-5 7,-10 13,-13 5,-4 11,-6 19,-8l0 -96 179 0zm-92 132l-56 0c-3,0 -5,0 -8,1 -2,1 -5,2 -7,4 -2,2 -3,4 -5,7 -1,3 -2,6 -2,11 0,5 1,11 4,17 2,6 6,11 9,16 4,5 8,9 13,12 5,3 10,5 14,5 7,0 13,-1 18,-4 5,-3 9,-7 11,-12 3,-5 5,-11 6,-17 1,-7 2,-14 2,-21l0 -17zm0 -42l0 -48 -39 0 0 48 39 0zm480 153l-200 0 0 -19c-3,3 -6,6 -10,9 -3,3 -7,5 -11,7 -4,2 -9,4 -15,5 -6,1 -12,2 -19,2 -7,0 -14,-1 -20,-4 -6,-3 -10,-6 -14,-11 -4,-5 -7,-11 -8,-18 -2,-7 -3,-15 -3,-24l0 -190 48 0 0 173c0,4 0,8 0,12 0,4 1,7 2,10 1,3 2,5 4,7 2,2 5,3 8,3 4,0 9,-2 13,-5 4,-4 8,-8 12,-13 4,-5 6,-11 9,-16 2,-6 3,-10 3,-14l0 -155 48 0 0 201 104 0 0 -201 48 0 0 243zm101 0l-48 0 0 -204c0,-17 -1,-31 -3,-43 -2,-12 -6,-22 -11,-29 -5,-7 -11,-13 -19,-16 -8,-3 -18,-5 -29,-5 -7,0 -14,1 -20,2 -6,1 -11,3 -15,6 -4,3 -8,6 -10,10 -2,4 -4,9 -4,14 0,2 1,5 2,7 1,3 3,5 6,7 3,2 7,4 11,6 5,2 10,2 17,2l17 0 0 42 -17 0c-16,0 -29,-2 -40,-5 -11,-3 -19,-8 -26,-14 -7,-6 -11,-13 -14,-21 -3,-8 -4,-16 -4,-24 0,-12 3,-22 7,-32 5,-9 12,-17 21,-24 9,-6 19,-11 31,-15 12,-3 25,-5 40,-5 14,0 27,1 38,4 11,3 20,7 28,13 8,5 15,12 20,19 5,7 10,16 13,25 3,9 6,19 7,29 1,10 2,21 2,32l0 218zm293 -243c17,0 33,3 45,10 13,6 23,15 32,26 8,11 15,24 19,38 4,15 6,30 6,46 0,18 -2,34 -6,49 -4,15 -11,29 -19,40 -8,11 -19,21 -31,27 -12,7 -27,10 -43,10 -29,0 -51,-9 -66,-28 -15,-19 -23,-47 -24,-85 0,-8 -1,-17 -1,-24 0,-8 -1,-15 -2,-22 -1,-7 -3,-13 -5,-19 -2,-6 -6,-11 -10,-15 -4,-4 -9,-8 -15,-10 -6,-2 -13,-4 -22,-4 -9,0 -17,2 -24,5 -7,4 -13,8 -18,14 -5,6 -9,13 -12,21 -3,8 -5,16 -6,25 1,0 2,0 4,0 2,0 4,0 5,0 2,0 4,0 5,0 2,0 3,0 4,0 12,0 22,2 30,7 8,5 15,10 20,17 5,7 9,15 12,23 2,9 4,17 4,25 0,9 -1,18 -4,26 -3,9 -7,16 -13,23 -5,7 -12,12 -20,16 -8,4 -17,6 -26,6 -11,0 -21,-3 -30,-8 -9,-5 -16,-13 -23,-22 -6,-10 -11,-21 -14,-34 -3,-13 -5,-27 -5,-43 0,-11 1,-23 3,-35 2,-12 5,-23 9,-33 4,-11 9,-21 15,-30 6,-9 13,-17 22,-24 8,-7 18,-12 29,-16 11,-4 23,-6 36,-6 17,0 31,3 44,8 12,5 23,13 31,24 8,11 15,24 19,40 4,16 7,35 7,57 0,14 1,27 3,37 2,10 5,18 8,25 4,6 8,11 13,14 5,3 11,4 18,4 6,0 12,-1 17,-3 5,-2 9,-5 12,-9 4,-4 6,-8 9,-13 2,-5 4,-11 6,-17 2,-6 3,-12 3,-18 1,-6 1,-13 1,-19 0,-9 -1,-19 -3,-28 -2,-10 -5,-18 -9,-26 -4,-8 -9,-14 -16,-19 -7,-5 -15,-8 -25,-8l0 -43zm-203 151c0,6 0,12 1,19 1,6 2,12 3,17 2,5 4,9 7,13 3,3 7,5 11,5 3,0 6,-1 8,-3 2,-2 4,-4 6,-7 2,-3 3,-6 4,-9 1,-3 1,-7 1,-10 0,-3 0,-6 -1,-9 -1,-4 -2,-7 -3,-10 -2,-3 -4,-6 -7,-8 -3,-2 -7,-3 -12,-3 -3,0 -7,0 -10,1 -3,1 -6,2 -9,3zm103 -212c0,-4 1,-8 2,-11 1,-4 3,-7 6,-9 2,-3 5,-5 9,-6 3,-2 7,-2 10,-2 4,0 7,1 10,2 3,2 6,4 9,6 2,3 4,6 6,9 1,4 2,7 2,11 0,4 -1,8 -2,12 -1,4 -3,7 -6,9 -2,3 -5,5 -9,6 -3,2 -7,2 -11,2 -4,0 -7,-1 -11,-2 -3,-2 -6,-4 -9,-6 -2,-3 -4,-6 -6,-9 -1,-4 -2,-7 -2,-11z"/>
  </g>
 </g>
</svg>
